<svg xmlns:xlink="http://www.w3.org/1999/xlink" xmlns="http://www.w3.org/2000/svg" viewBox="0 0 100 100" id="1883776229" class="svg u_1883776229" data-icon-name="li_speedometer" width="100"  height="100" > <g fill="#0069D9"> <path d="M50,29.7c-21,0-38.1,17.1-38.1,38.1V69h27v-1.2c0-6.1,5-11,11.1-11c2.6,0,5,0.9,6.9,2.5l-6.3,6.3c-0.2-0.1-0.4-0.1-0.6-0.1
		c-1.4,0-2.5,1.1-2.5,2.5c0,1.4,1.1,2.5,2.5,2.5c1.4,0,2.5-1.1,2.5-2.5c0-0.2-0.1-0.4-0.1-0.6l6.3-6.3c1.5,1.9,2.5,4.3,2.5,6.9V69
		h27v-1.2C88.1,46.8,71,29.7,50,29.7z M63.5,66.6c-0.3-2.8-1.4-5.3-3.1-7.4L72.6,47l-1.7-1.7L58.6,57.5c-2.3-2-5.3-3.2-8.6-3.2
		c-7,0-12.8,5.4-13.5,12.3H14.4C15.1,47.5,30.8,32.2,50,32.2c19.2,0,34.9,15.3,35.6,34.4H63.5z" fill="#0069D9"></path> 
 <rect x="48.8" y="37.1" width="2.5" height="12.3" fill="#0069D9"></rect> 
 <rect x="31.4" y="44.3" transform="matrix(0.7071 -0.7071 0.7071 0.7071 -26.1074 37.8482)" width="2.5" height="12.3" fill="#0069D9"></rect> 
</g> 
</svg>