<svg xmlns:xlink="http://www.w3.org/1999/xlink" xmlns="http://www.w3.org/2000/svg" viewBox="0 0 100 100" id="1173459149" class="svg u_1173459149" data-icon-name="li_rocket" width="100"  height="100" > <g id="1593019363" fill="#0069D9"> <path d="M50.8,67.5c-0.5-0.4-1.2-0.4-1.6,0c-2.9,2.6-4.5,6.3-4.5,10.1c0,3.8,1.7,7.5,4.5,10.1c0.2,0.2,0.5,0.3,0.8,0.3
		c0.3,0,0.6-0.1,0.8-0.3c2.9-2.6,4.5-6.3,4.5-10.1C55.4,73.8,53.7,70.1,50.8,67.5z M50,85.1c-1.9-2-2.9-4.7-2.9-7.5
		c0-2.8,1-5.4,2.9-7.5c1.9,2,2.9,4.7,2.9,7.5C52.9,80.4,51.9,83.1,50,85.1z" id="1485016852" fill="#0069D9"></path> 
 <path d="M75.4,61.4L63.5,49.5v-24c0-7.4-6.1-13.5-13.5-13.5c-7.4,0-13.5,6.1-13.5,13.5v24L24.6,61.4c-0.3,0.4-0.5,0.9-0.3,1.3
		c0.2,0.5,0.6,0.8,1.1,0.8h49.1c0.5,0,0.9-0.3,1.1-0.8C75.9,62.3,75.8,61.8,75.4,61.4z M51.2,61.1V50c0-0.7-0.5-1.2-1.2-1.2
		c-0.7,0-1.2,0.5-1.2,1.2v11.1H28.4l10.2-10.2c0.2-0.2,0.4-0.5,0.4-0.9V25.4c0-6.1,5-11,11.1-11s11.1,5,11.1,11V50
		c0,0.3,0.1,0.6,0.4,0.9l10.2,10.2H51.2z" id="1648340720" fill="#0069D9"></path> 
 <path d="M50,24.2c-2.4,0-4.3,1.9-4.3,4.3c0,2.4,1.9,4.3,4.3,4.3c2.4,0,4.3-1.9,4.3-4.3C54.3,26.1,52.4,24.2,50,24.2z M50,30.4
		c-1,0-1.8-0.8-1.8-1.8c0-1,0.8-1.8,1.8-1.8c1,0,1.8,0.8,1.8,1.8C51.8,29.5,51,30.4,50,30.4z" id="1620347686" fill="#0069D9"></path> 
 <path d="M50,36.5c-2.4,0-4.3,1.9-4.3,4.3c0,2.4,1.9,4.3,4.3,4.3c2.4,0,4.3-1.9,4.3-4.3C54.3,38.4,52.4,36.5,50,36.5z M50,42.6
		c-1,0-1.8-0.8-1.8-1.8c0-1,0.8-1.8,1.8-1.8c1,0,1.8,0.8,1.8,1.8C51.8,41.8,51,42.6,50,42.6z" id="1261120663" fill="#0069D9"></path> 
</g> 
</svg>