<svg xmlns:xlink="http://www.w3.org/1999/xlink" xmlns="http://www.w3.org/2000/svg" viewBox="0 0 100 100" id="1080750079" class="svg u_1080750079" data-icon-name="general_closed_file_box" width="100"  height="100" > <path d="M80,20.73H20a1.3,1.3,0,0,0-1.3,1.3V40.5A1.3,1.3,0,0,0,20,41.8h2.72V78a1.3,1.3,0,0,0,1.3,1.3H76a1.3,1.3,0,0,0,1.3-1.3V41.8H80a1.3,1.3,0,0,0,1.3-1.3V22A1.3,1.3,0,0,0,80,20.73Zm-5.31,56H25.31V41.8H74.69Zm4-37.47H21.3V23.32H78.7Z" id="1103928535" fill="#0069D9"></path> 
 <path d="M59.27,59H40.73a6,6,0,1,1,0-11.9H59.27a6,6,0,1,1,0,11.9ZM40.73,49.7a3.36,3.36,0,1,0,0,6.71H59.27a3.36,3.36,0,1,0,0-6.71Z" id="1209137917" fill="#0069D9"></path> 
</svg>