<svg xmlns:xlink="http://www.w3.org/1999/xlink" xmlns="http://www.w3.org/2000/svg" viewBox="0 0 100 100" id="1054410510" class="svg u_1054410510" data-icon-name="li-book" width="100"  height="100" > <path d="M87.7,27.2c-5.2-5.2-12.2-8.1-19.6-8.1c-6.7,0-13.1,2.4-18.2,6.8c-5-4.4-11.4-6.8-18.1-6.8c-7.4,0-14.3,2.9-19.6,8.1
	l-0.4,0.4v47.1h30.8c0.6,3.5,3.6,6.1,7.3,6.1c3.6,0,6.7-2.7,7.3-6.1h30.8V27.6L87.7,27.2z M31.9,21.6c6.7,0,13.1,2.6,17.8,7.4
	l0.3-0.3l0.3,0.3c4.8-4.8,11.1-7.4,17.8-7.4c6.6,0,12.7,2.5,17.5,7v34c-4.9-4-11-6.2-17.5-6.2c-6.8,0-13.1,2.4-18.2,6.8
	c-5-4.4-11.4-6.8-18.1-6.8c-6.4,0-12.5,2.2-17.5,6.2v-34C19.1,24.1,25.3,21.6,31.9,21.6z M54.9,72.3v1.2c0,2.7-2.2,4.9-4.9,4.9
	c-2.7,0-4.9-2.2-4.9-4.9v-1.2H14.4v-6.3c4.7-4.5,10.9-7.1,17.5-7.1c6.7,0,13.1,2.6,17.8,7.4l0.3-0.3l0.3,0.3
	c4.8-4.8,11.1-7.4,17.8-7.4c6.6,0,12.7,2.5,17.5,7.1v6.3H54.9z" fill="#0069D9"></path> 
</svg>