<svg xmlns:xlink="http://www.w3.org/1999/xlink" xmlns="http://www.w3.org/2000/svg" viewBox="0 0 100 100" id="1276360924" class="svg u_1276360924" data-icon-name="business_document_magnifier_business" width="100"  height="100" > <path d="M85.33,77.37,68.55,60.59a14.53,14.53,0,0,0-5.73-22.88v-14a4.74,4.74,0,0,0-4.65-4.81H19a4.74,4.74,0,0,0-4.65,4.81V76.26A4.74,4.74,0,0,0,19,81.07H58.17a4.74,4.74,0,0,0,4.65-4.81V64.73a14.58,14.58,0,0,0,4-2.4L83.6,79.11a1.23,1.23,0,1,0,1.74-1.74Zm-25-1.12a2.28,2.28,0,0,1-2.19,2.35H19a2.28,2.28,0,0,1-2.19-2.35V23.74A2.28,2.28,0,0,1,19,21.39H58.17a2.28,2.28,0,0,1,2.19,2.35V37a14.54,14.54,0,0,0-14.8,5.86H25.14a1.23,1.23,0,0,0,0,2.46h19a14.46,14.46,0,0,0-1.27,5.93c0,.41,0,.82.05,1.22H25.14a1.23,1.23,0,0,0,0,2.46H43.36A14.57,14.57,0,0,0,47.73,62H25.14a1.23,1.23,0,0,0,0,2.46H51.5a14.5,14.5,0,0,0,8.86,1Zm-2.92-13A12.09,12.09,0,1,1,69.52,51.22,12.1,12.1,0,0,1,57.44,63.3Z" id="1980018218" fill="#0069D9"></path> 
 <path d="M51.77,33.23H25.14a1.23,1.23,0,0,0,0,2.46H51.77a1.23,1.23,0,0,0,0-2.46Z" id="1691000857" fill="#0069D9"></path> 
</svg>